<svg id="Layer_1" data-name="Layer 1" xmlns="http://www.w3.org/2000/svg" viewBox="0 0 955.28 246.68"><defs><style>.cls-1{fill:#f36e2d;}.cls-2{fill:#3e81f7;}</style></defs><title>Logo</title><path class="cls-1" d="M333.25,0a23.44,23.44,0,1,0,23.44,23.44A23.43,23.43,0,0,0,333.25,0h0" transform="translate(0.01 0)"/><path class="cls-2" d="M920.73,103.5a85.59,85.59,0,0,0-13.94,1,25.12,25.12,0,0,0-10.62,4.18,19.31,19.31,0,0,0-6.62,9q-2.25,5.92-2.26,15.33v97.2q0,6.27-5.39,11.32t-14.46,5q-9.39,0-15.15-5t-5.75-11.32V134.5q0-33.09,17.77-51t56.42-17.94q17.76,0,27,7t7.15,19.5q-1.05,6.27-4.53,8.88a16.68,16.68,0,0,1-8.36,3.14,52,52,0,0,1-10.44,0c-3.72-.35-7.32-.52-10.8-.53" transform="translate(0.01 0)"/><path class="cls-1" d="M19.85,20.26q-9.06,0-14.44,5.06T0,39.07A17.06,17.06,0,0,0,5.41,52.13q5.4,5.06,14.45,5H61V230.26q0,6.27,5.57,11.32t15.32,5q9.06,0,14.46-5t5.4-11.32V57.18h45.62q10.09,0,15.15-5a17.63,17.63,0,0,0,5.05-13.06q0-8.7-5.05-13.75t-15.16-5.06Z" transform="translate(0.01 0)"/><path class="cls-1" d="M250.16,103.5q5.22,0,10.8.53a52,52,0,0,0,10.44,0,16.59,16.59,0,0,0,8.36-3.14q3.48-2.61,4.53-8.88,2.08-12.54-7.14-19.5t-27-7q-38.65,0-56.42,17.94t-17.76,51v95.81q0,6.27,5.74,11.32t15.15,5q9.06,0,14.46-5t5.4-11.32V133.11q0-9.41,2.27-15.33a19.24,19.24,0,0,1,6.62-9,24.82,24.82,0,0,1,10.62-4.18,85.55,85.55,0,0,1,13.93-1" transform="translate(0.01 0)"/><path class="cls-2" d="M589.32,172.11q0,19.17-10.62,27.87t-26,8.7q-18.11,0-29.08-10.79t-11-29.26V143.26q0-18.47,11-29.26t29.08-10.79q14.64,0,25.25,8.53t11.32,27v33.37ZM624.15,9.26q-5.58-5.05-15.32-5-8.7,0-14.11,5t-5.4,11.32V84.35l-2.43.35A60.86,60.86,0,0,0,569,70.94a53.74,53.74,0,0,0-25.25-5.75q-19.16,0-32.74,6.27a60.91,60.91,0,0,0-22.29,17.07,71.35,71.35,0,0,0-12.89,25.25,110.74,110.74,0,0,0-4.17,30.82v22.66a93.11,93.11,0,0,0,5,30.82,70.59,70.59,0,0,0,15.15,25.25A71.44,71.44,0,0,0,517,240.4q15.15,6.27,35.7,6.27,19.17,0,33.61-5.75A64.23,64.23,0,0,0,624.81,201a91.28,91.28,0,0,0,4.87-30.3V20.62q0-6.27-5.57-11.32Z" transform="translate(0.01 0)"/><path class="cls-2" d="M714.27,109.26q9.22-9.93,24.91-9.92t25.6,8.35q9.91,8.37,9.92,22.64v5.23h-71q1.41-16.38,10.62-26.3Zm71.92,56.6q14.64,0,20.9-6.62t6.32-23a77.9,77.9,0,0,0-4.18-24.73A65.63,65.63,0,0,0,773.31,72q-13.9-6.45-33.78-6.45a77.65,77.65,0,0,0-30.65,5.92,75.26,75.26,0,0,0-24,16,74.22,74.22,0,0,0-21.59,52.59V177a63.11,63.11,0,0,0,5.93,27,67.11,67.11,0,0,0,16.54,22.12,81.38,81.38,0,0,0,25.24,15,90.12,90.12,0,0,0,32.39,5.58,95.48,95.48,0,0,0,24.21-3,88.25,88.25,0,0,0,19.68-7.49,47.06,47.06,0,0,0,13.23-10.1q4.89-5.58,4.88-11.15a16.65,16.65,0,0,0-4.18-10.79q-3.83-4.19-10.8-4.18a17.81,17.81,0,0,0-8.35,2.43q-4.53,2.45-9.41,4.88a48.08,48.08,0,0,1-12.36,3.31,113,113,0,0,1-17.24,1.22q-18.81,0-29.08-10.1t-10.28-26.82v-9Z" transform="translate(0.01 0)"/><path class="cls-1" d="M347.71,70.59q-5.4-5-14.46-5-9.4,0-15.15,5t-5.69,11.32V230.26q0,6.27,5.74,11.32t15.15,5q9.06,0,14.46-5t5.34-11.32V112.42a36.25,36.25,0,0,0,17.46,4.23c0-.09,11.59-1,11.59-11.83A11.59,11.59,0,0,0,371,93.26c-9.71-.84-13.92-7.45-18.3-14.59a16.45,16.45,0,0,0-5-8Z" transform="translate(0.01 0)"/><path class="cls-2" d="M381.66,93c8.65,4.71,9.38,16.87.78,23.92a50.18,50.18,0,0,0,15.69-4.7v118q0,6.27,5.75,11.32t15.14,5q9.06,0,14.46-5t5.4-11.32V81.91q0-6.27-5.4-11.32t-14.46-5q-9.39,0-15.14,5a16,16,0,0,0-5.47,8.48c-5.85,11.15-11,13.28-16.78,14" transform="translate(0.01 0)"/><path class="cls-2" d="M395.58,23.44A23.45,23.45,0,1,0,419,0h0a23.43,23.43,0,0,0-23.44,23.44Z" transform="translate(0.01 0)"/></svg>